HIERARCHY
ROOT Hips
{
	OFFSET -0.001795 -0.223333 0.028219
	CHANNELS 6 Xposition Yposition Zposition Zrotation Yrotation Xrotation 
	JOINT LeftUpLeg
	{
		OFFSET 0.069520 -0.091406 -0.006815
		CHANNELS 3 Zrotation Yrotation Xrotation
		JOINT LeftLeg
		{
			OFFSET 0.034277 -0.375199 -0.004496
			CHANNELS 3 Zrotation Yrotation Xrotation
			JOINT LeftFoot
			{
				OFFSET -0.013596 -0.397961 -0.043693
				CHANNELS 3 Zrotation Yrotation Xrotation
				JOINT LeftToe
				{
					OFFSET 0.026358 -0.055791 0.119288
					CHANNELS 3 Zrotation Yrotation Xrotation
					End Site
					{
						OFFSET 0.000000 0.000000 0.000000
					}
				}
			}
		}
	}
	JOINT RightUpLeg
	{
		OFFSET -0.067670 -0.090522 -0.004320
		CHANNELS 3 Zrotation Yrotation Xrotation
		JOINT RightLeg
		{
			OFFSET -0.038290 -0.382569 -0.008850
			CHANNELS 3 Zrotation Yrotation Xrotation
			JOINT RightFoot
			{
				OFFSET 0.015774 -0.398415 -0.042312
				CHANNELS 3 Zrotation Yrotation Xrotation
				JOINT RightToe
				{
					OFFSET -0.025372 -0.048144 0.123348
					CHANNELS 3 Zrotation Yrotation Xrotation
					End Site
					{
						OFFSET 0.000000 0.000000 0.000000
					}
				}
			}
		}
	}
	JOINT Spine
	{
		OFFSET -0.002533 0.108963 -0.026696
		CHANNELS 3 Zrotation Yrotation Xrotation
		JOINT Spine1
		{
			OFFSET 0.005487 0.135180 0.001092
			CHANNELS 3 Zrotation Yrotation Xrotation
			JOINT Spine2
			{
				OFFSET 0.001457 0.052922 0.025425
				CHANNELS 3 Zrotation Yrotation Xrotation
				JOINT Neck
				{
					OFFSET -0.002778 0.213870 -0.042857
					CHANNELS 3 Zrotation Yrotation Xrotation
					JOINT Head
					{
						OFFSET 0.005152 0.064970 0.051349
						CHANNELS 3 Zrotation Yrotation Xrotation
						End Site
						{
							OFFSET 0.000000 0.000000 0.000000
						}
					}
				}
				JOINT LeftShoulder
				{
					OFFSET 0.078845 0.121749 -0.034090
					CHANNELS 3 Zrotation Yrotation Xrotation
					JOINT LeftArm
					{
						OFFSET 0.090977 0.030469 -0.008868
						CHANNELS 3 Zrotation Yrotation Xrotation
						JOINT LeftForeArm
						{
							OFFSET 0.259612 -0.012772 -0.027456
							CHANNELS 3 Zrotation Yrotation Xrotation
							JOINT LeftHand
							{
								OFFSET 0.249234 0.008986 -0.001171
								CHANNELS 3 Zrotation Yrotation Xrotation
								End Site
								{
									OFFSET 0.000000 0.000000 0.000000
								}
							}
						}
					}
				}
				JOINT RightShoulder
				{
					OFFSET -0.081759 0.118833 -0.038615
					CHANNELS 3 Zrotation Yrotation Xrotation
					JOINT RightArm
					{
						OFFSET -0.096012 0.032551 -0.009143
						CHANNELS 3 Zrotation Yrotation Xrotation
						JOINT RightForeArm
						{
							OFFSET -0.253742 -0.013329 -0.021401
							CHANNELS 3 Zrotation Yrotation Xrotation
							JOINT RightHand
							{
								OFFSET -0.255298 0.007772 -0.005559
								CHANNELS 3 Zrotation Yrotation Xrotation
								End Site
								{
									OFFSET 0.000000 0.000000 0.000000
								}
							}
						}
					}
				}
			}
		}
	}
}
MOTION
Frames: 9
Frame Time: 0.050000
0.077191 0.935058 0.060385 0.357925 -4.999131 7.452112 3.507283 -0.937065 -15.723437 -0.586686 -0.165236 11.697217 1.047909 2.995961 2.262945 0.000000 0.000000 0.000000 -7.095387 0.914138 -12.989268 -5.163647 1.583712 11.639328 1.018417 -0.156420 4.551273 0.000000 0.000000 0.000000 5.855405 -0.312998 1.337275 -0.205386 0.127443 -2.309035 -8.189560 8.106737 10.497690 14.831763 -8.300759 -13.522830 0.000000 0.000000 0.000000 -8.820539 -3.881603 0.137163 -35.845955 -3.248248 -3.429232 -107.468242 -52.519470 68.393238 0.000000 0.000000 0.000000 3.771127 -9.081775 -3.626947 42.064409 -11.575751 -7.719803 129.757793 34.075493 74.189874 0.000000 0.000000 0.000000 
0.094823 0.937267 0.061509 0.363223 -4.752398 8.238769 2.650632 -1.070689 -16.146880 -0.697490 -0.129431 10.512341 0.973978 2.730027 1.892530 0.000000 0.000000 0.000000 -7.866299 0.945869 -14.610642 -4.987552 1.637268 12.603480 1.134646 -0.214442 5.190907 0.000000 0.000000 0.000000 5.553187 -0.376591 2.023370 0.138824 -0.008124 -3.320622 -8.008634 8.707835 11.347487 15.592533 -8.560848 -14.366749 0.000000 0.000000 0.000000 -6.935577 -3.685982 0.245830 -35.665557 -2.985797 -3.545229 -115.228416 -51.895996 75.235415 0.000000 0.000000 0.000000 3.738504 -8.509106 -3.377902 43.841210 -9.987886 -7.569991 133.790928 36.529332 84.983109 0.000000 0.000000 0.000000 
0.107981 0.940605 0.061225 0.308490 -4.586742 9.310474 1.727695 -1.195025 -16.264722 -0.285685 -0.187636 8.918781 0.834919 2.701169 2.639620 0.000000 0.000000 0.000000 -7.635542 1.073641 -16.798675 -5.315773 1.636860 11.965666 1.188682 -0.137480 5.305107 0.000000 0.000000 0.000000 5.310863 -0.422646 2.452053 0.551468 -0.198675 -2.479026 -7.873628 8.560672 10.391885 15.313719 -8.217039 -14.646136 0.000000 0.000000 0.000000 -4.559110 -4.410961 0.824133 -36.378444 -2.845076 -3.644593 -122.635946 -51.899103 83.635662 0.000000 0.000000 0.000000 3.854705 -7.149473 -2.839421 45.177562 -6.927541 -6.698213 136.570062 41.058724 96.830236 0.000000 0.000000 0.000000 
0.117277 0.942844 0.059932 0.521528 -4.316506 10.394948 0.916103 -1.290452 -16.177034 0.205971 -0.221294 6.462618 1.167500 3.575704 3.242992 0.000000 0.000000 0.000000 -7.608030 1.118621 -17.530840 -5.252362 1.406085 9.813379 1.218704 -0.366655 5.908677 0.000000 0.000000 0.000000 4.788536 -0.446696 2.890357 1.132549 -0.427891 -3.264396 -8.009093 9.214033 10.709909 16.092984 -8.411479 -15.560572 0.000000 0.000000 0.000000 -2.846374 -6.841921 1.865977 -35.690814 -5.747481 -2.848481 -129.675427 -55.255994 96.380398 0.000000 0.000000 0.000000 3.728859 -4.344879 -1.663117 47.809566 -1.787875 -5.197901 136.308247 50.027188 110.222179 0.000000 0.000000 0.000000 
0.123123 0.944928 0.056752 0.909922 -3.430397 10.984409 0.294769 -1.389868 -16.363073 0.965595 -0.281066 4.429211 0.365020 2.607066 4.933825 0.000000 0.000000 0.000000 -7.551438 1.105564 -17.640977 -4.748059 1.071327 7.187165 1.486964 -0.334392 7.176003 0.000000 0.000000 0.000000 4.278307 -0.467298 3.470369 1.451065 -0.571829 -2.763517 -8.377103 9.958693 9.492624 17.594128 -9.077876 -16.080512 0.000000 0.000000 0.000000 -1.470144 -10.857616 3.312431 -34.399963 -12.746171 -0.913660 -136.202223 -63.423343 113.455355 0.000000 0.000000 0.000000 3.652970 0.006986 0.179759 49.383024 5.578405 -2.348117 132.463342 65.185386 122.681725 0.000000 0.000000 0.000000 
0.126508 0.945667 0.052110 1.197412 -2.649100 11.330134 -0.452814 -1.481855 -16.332161 1.508757 -0.304646 3.088036 -0.243859 1.641471 5.353583 0.000000 0.000000 0.000000 -7.154508 1.123392 -17.717980 -5.104197 1.004648 5.808505 1.537982 -0.743438 8.417342 0.000000 0.000000 0.000000 4.086623 -0.527673 4.363597 1.745180 -0.704027 -2.474389 -9.213562 10.706791 8.681272 19.009639 -9.763382 -16.426245 0.000000 0.000000 0.000000 -1.090616 -16.276557 5.092583 -31.087357 -23.585058 1.530969 -151.007270 -78.874566 144.379693 0.000000 0.000000 0.000000 3.187590 6.791779 3.033478 49.128988 15.291122 1.681694 68.095619 86.426319 74.726733 0.000000 0.000000 0.000000 
0.128248 0.946790 0.046027 1.503807 -1.659307 11.128879 -0.608972 -1.616818 -17.436000 1.436359 -0.322830 3.702835 -1.025063 0.762579 6.706263 0.000000 0.000000 0.000000 -6.824847 1.107313 -17.539513 -5.280686 0.952375 4.896362 1.661804 -1.002044 9.803675 0.000000 0.000000 0.000000 3.750189 -0.596082 5.706343 2.061420 -0.858116 -1.995021 -10.105385 11.741486 7.403473 20.134803 -10.435687 -16.126129 0.000000 0.000000 0.000000 -0.295849 -23.824162 7.506948 -27.488068 -35.912241 3.378336 45.208214 -77.024801 -37.419488 0.000000 0.000000 0.000000 2.627386 13.737496 5.986311 43.976041 27.954987 6.230447 -26.592880 62.454733 -9.992796 0.000000 0.000000 0.000000 
0.129067 0.947402 0.040844 1.449272 -0.548726 11.332004 -0.402359 -1.714389 -18.522331 1.272024 -0.320120 4.134918 -1.789161 0.028373 8.111261 0.000000 0.000000 0.000000 -6.430876 1.114608 -17.600992 -5.586101 0.890259 3.681410 1.684830 -1.518844 11.476864 0.000000 0.000000 0.000000 4.641867 -0.790790 6.921978 1.611500 -0.659239 -1.935402 -10.807458 11.926511 6.664850 21.478857 -10.454064 -18.226609 0.000000 0.000000 0.000000 0.032739 -29.812285 9.434836 -23.380929 -45.127755 3.645137 35.630765 -57.053561 -19.936800 0.000000 0.000000 0.000000 1.182489 19.800307 8.300553 36.541783 38.652096 8.546383 -23.545941 37.713721 -5.073176 0.000000 0.000000 0.000000 
0.129296 0.947812 0.037218 1.659816 -0.028435 11.875858 -0.300742 -1.867085 -20.168871 1.127812 -0.348098 5.218425 -2.618771 -1.012721 9.063483 0.000000 0.000000 0.000000 -6.392209 1.116387 -17.811567 -5.518143 0.834449 3.141712 1.249038 -2.561302 12.155499 0.000000 0.000000 0.000000 4.914658 -0.892391 7.622544 1.668509 -0.706590 -1.361800 -11.216649 11.866241 6.161774 22.329817 -11.265316 -17.436437 0.000000 0.000000 0.000000 1.091198 -34.091031 10.765630 -18.291600 -50.428510 2.333050 31.537204 -42.281676 -12.133616 0.000000 0.000000 0.000000 -1.125342 23.273017 9.148262 30.539534 44.962150 8.913894 -19.986174 25.503597 -2.794150 0.000000 0.000000 0.000000 
